<svg id="Layer_1" data-name="Layer 1" xmlns="http://www.w3.org/2000/svg" viewBox="0 0 1440 1440"><defs><style>.cls-1{fill:#2073ed;}.cls-2{fill:#212121;}</style></defs><rect class="cls-1" width="1440" height="1440"/><path class="cls-2" d="M340.32,644.82H178.73a542.5,542.5,0,0,1,68.68-199.23Z"/><path class="cls-2" d="M900.78,795.17l163,349.53A544,544,0,0,1,720,1266.39c-276.26,0-504.64-205-541.27-471.22h231.7l163,349.55H772.34l-163-349.55Z"/><path class="cls-2" d="M1100.3,795.17h161a542.72,542.72,0,0,1-68.53,199Z"/><path class="cls-2" d="M539.22,644.81l-163-349.53A544,544,0,0,1,720,173.6c276.26,0,504.64,205,541.27,471.22H1030.45L868.06,295.28H669.15L830.67,644.81Z"/></svg>