<svg xmlns="http://www.w3.org/2000/svg" id="Layer_1" data-name="Layer 1" viewBox="0 0 4222.17 1140.65"><defs><style>.cls-1{fill:#212121}.cls-2{fill:#2073ed}.cls-3{fill:#f4f4f4}</style></defs><rect width="4222.17" height="1140.65" class="cls-1"/><polygon points="884.67 511.39 994.5 511.39 994.5 443.11 830.15 443.11 884.67 511.39" class="cls-2"/><polygon points="3253.89 443.1 3212.02 443.1 1913.27 443.1 1913.27 511.39 3212.02 511.39 3253.89 511.39 3337.5 511.39 3392.03 443.1 3253.89 443.1" class="cls-2"/><circle cx="1488.07" cy="477.25" r="289.29" class="cls-2"/><polygon points="1256.15 303.9 1256.15 650.6 1165.8 650.6 1165.8 511.39 1033.42 511.39 1033.42 650.6 943.07 650.6 943.07 303.9 1033.42 303.9 1033.42 443.1 1165.8 443.1 1165.8 303.9 1256.15 303.9" class="cls-3"/><path d="M1579,319.92q38.08,21.29,58.57,61.46T1658,477.25q0,55.69-20.49,95.87T1579,634.58q-38.1,21.28-90.61,21.28t-90.88-21.28q-38.36-21.27-58.84-61.46t-20.48-95.87q0-55.67,20.48-95.87t58.84-61.46q38.34-21.27,90.88-21.27T1579,319.92Zm-148.4,77q-20,27.31-20,80.37t20,80.37q20,27.33,57.79,27.32t57.52-27.32q19.7-27.3,19.7-80.37t-19.7-80.37q-19.71-27.3-57.52-27.32T1430.55,396.88Z" class="cls-3"/><path d="M1948.5,514.55q33.11-12.07,50.43-37.3t17.34-63q0-53.58-33.89-82t-96.91-28.37H1720V650.61h88.78V511.39h56L1937,650.61h99.8Zm-74.65-71.15h-65.08V372.19h65.08c29.25,0,53,15.94,53,35.61S1903.1,443.4,1873.85,443.4Z" class="cls-3"/><path d="M2172.28,650.6h-90.35V303.9h90.35Z" class="cls-3"/><path d="M2527.39,582.31V650.6H2230.06V585.47L2423.9,372.19H2233.74V303.9h287.34V369L2328.3,582.31Z" class="cls-3"/><path d="M2825.5,319.92q38.09,21.29,58.57,61.46t20.49,95.87q0,55.69-20.49,95.87t-58.57,61.46q-38.1,21.28-90.62,21.28T2644,634.58q-38.36-21.27-58.84-61.46t-20.49-95.87q0-55.67,20.49-95.87T2644,319.92q38.32-21.27,90.87-21.27T2825.5,319.92Zm-148.4,77q-20,27.31-20,80.37t20,80.37q20,27.33,57.78,27.32t57.53-27.32q19.7-27.3,19.69-80.37t-19.69-80.37q-19.71-27.3-57.53-27.32T2677.1,396.88Z" class="cls-3"/><polygon points="3279.1 303.9 3279.1 650.61 3178.77 650.61 3071.08 463.07 3046.39 413.7 3046.39 650.61 2966.54 650.61 2966.54 303.9 3066.88 303.9 3174.56 491.44 3199.26 540.83 3199.26 303.9 3279.1 303.9" class="cls-3"/><path d="M943.07,819.18h64q47.42.21,47.42,35.47,0,11.57-6.77,19.53t-19.93,10v.2q14.74,2,22.42,10.27t7.67,20.62q0,17.14-12.15,26.3T1010,950.7h-67ZM1000.86,873q18.54,0,18.53-14.35t-18.53-14.35H976.15V873Zm3.39,53.6q9.16,0,13.85-3.79t4.68-11q0-7-4.68-10.66t-13.85-3.68h-28.1v29.09Z" class="cls-2"/><path d="M1182.39,924.2v26.5h-105V819.18H1179.8v26.51h-68.15v26.7h54.2V897.3h-54.2v26.9Z" class="cls-2"/><path d="M1269.08,902.68v48H1234.8v-48l-46.43-83.5h35.47l18.53,36.07,9.77,21.92,10-21.92,18.53-36.07h34.88Z" class="cls-2"/><path d="M1414,825.26a54.16,54.16,0,0,1,22.22,23.32q7.77,15.24,7.78,36.36t-7.78,36.37A54.19,54.19,0,0,1,1414,944.62q-14.44,8.07-34.37,8.07t-34.47-8.07a54.07,54.07,0,0,1-22.32-23.31q-7.77-15.24-7.77-36.37t7.77-36.36a54,54,0,0,1,22.32-23.32q14.54-8.07,34.47-8.07T1414,825.26Zm-56.29,29.19q-7.57,10.37-7.57,30.49t7.57,30.49q7.57,10.37,21.92,10.36t21.82-10.36q7.47-10.36,7.47-30.49t-7.47-30.49q-7.47-10.35-21.82-10.36T1357.75,854.45Z" class="cls-2"/><path d="M1584.12,950.7h-38.06l-40.85-71.14-10-19.93h-.2l.8,24.71V950.7h-30.29V819.18h38.06l40.85,71.14,10,19.93h.2l-.8-24.71V819.18h30.29Z" class="cls-2"/><path d="M1714.34,836.22q16.44,17,16.44,48.72t-16.44,48.72q-16.44,17-47.32,17h-55.8V819.18H1667Q1697.9,819.18,1714.34,836.22Zm-26.4,78.61q7.77-10,7.77-29.89t-7.77-29.89q-7.77-10-24.31-10H1645.5V924.8h18.13Q1680.18,924.8,1687.94,914.83Z" class="cls-2"/><path d="M1910.42,836.22q16.44,17,16.44,48.72t-16.44,48.72q-16.44,17-47.32,17h-55.8V819.18h55.8Q1894,819.18,1910.42,836.22ZM1884,914.83q7.77-10,7.77-29.89T1884,855.05q-7.77-10-24.31-10h-18.13V924.8h18.13Q1876.24,924.8,1884,914.83Z" class="cls-2"/><path d="M2053.4,924.2v26.5h-105V819.18h102.43v26.51h-68.15v26.7h54.2V897.3h-54.2v26.9Z" class="cls-2"/><path d="M2145.86,950.7h-40.25l-46.83-131.52h36.06L2119,898.69l7.17,25.91,7-25.51,24.51-79.91h34.88Z" class="cls-2"/><path d="M2311.25,924.2v26.5h-105V819.18h102.42v26.51h-68.15v26.7h54.2V897.3h-54.2v26.9Z" class="cls-2"/><path d="M2430.22,924.2v26.5H2330V819.18h34.28v105Z" class="cls-2"/><path d="M2537.12,825.26a54.22,54.22,0,0,1,22.22,23.32q7.77,15.24,7.77,36.36t-7.77,36.37a54.25,54.25,0,0,1-22.22,23.31q-14.45,8.07-34.37,8.07t-34.48-8.07A54.1,54.1,0,0,1,2446,921.31q-7.77-15.24-7.77-36.37t7.77-36.36a54.07,54.07,0,0,1,22.31-23.32q14.55-8.07,34.48-8.07T2537.12,825.26Zm-56.29,29.19q-7.57,10.37-7.57,30.49t7.57,30.49q7.58,10.37,21.92,10.36t21.82-10.36q7.47-10.36,7.47-30.49t-7.47-30.49q-7.47-10.35-21.82-10.36T2480.83,854.45Z" class="cls-2"/><path d="M2686.68,830.44q13.14,11.26,13.15,32.38,0,20.13-13.15,31.19T2649,905.07h-26.1V950.7h-34.28V819.18H2649Q2673.52,819.18,2686.68,830.44Zm-26.61,45.24q5.28-4.29,5.28-13.26,0-8.76-5.28-13t-16.44-4.28h-20.72V880h20.72Q2654.79,880,2660.07,875.68Z" class="cls-2"/><path d="M2872,950.7h-30.29V890.32l1-40.45h-.39L2809.82,950.7h-27.69l-32.49-100.83h-.39l1,40.45V950.7h-30.49V819.18h48.83l20.72,67,7.37,27.9h.4l7.57-27.7,20.53-67.16H2872Z" class="cls-2"/><path d="M3004.11,924.2v26.5h-105V819.18h102.43v26.51h-68.15v26.7h54.2V897.3h-54.2v26.9Z" class="cls-2"/><path d="M3141.41,950.7h-38.06l-40.85-71.14-10-19.93h-.2l.8,24.71V950.7h-30.29V819.18h38.06l40.85,71.14,10,19.93h.19l-.79-24.71V819.18h30.29Z" class="cls-2"/><path d="M3279.1,845.69h-42.84v105H3202v-105h-43V819.18H3279.1Z" class="cls-2"/></svg>