<svg xmlns="http://www.w3.org/2000/svg" id="Layer_1" data-name="Layer 1" viewBox="0 0 1440 1440"><defs><style>.cls-1{fill:#212121}.cls-2{fill:#2073ed}</style></defs><rect width="1440" height="1440" class="cls-1"/><path d="M340.32,644.82H178.73a542.5,542.5,0,0,1,68.68-199.23Z" class="cls-2"/><path d="M900.78,795.17l163,349.54A544,544,0,0,1,720,1266.39c-276.27,0-504.64-205-541.27-471.22h231.7l163,349.55H772.34l-163-349.55Z" class="cls-2"/><path d="M1100.29,795.17h161a542.72,542.72,0,0,1-68.54,199Z" class="cls-2"/><path d="M1261.27,644.82H1030.45L868.06,295.28H669.14L830.66,644.81H539.22l-163-349.52h0A544,544,0,0,1,720,173.6C996.26,173.6,1224.64,378.62,1261.27,644.82Z" class="cls-2"/></svg>