<svg id="Layer_1" data-name="Layer 1" xmlns="http://www.w3.org/2000/svg" viewBox="0 0 1440 1440"><defs><style>.cls-1{fill:#f4f4f4;}.cls-2{fill:#f91c32;}</style></defs><rect class="cls-1" width="1440" height="1440"/><path class="cls-2" d="M340.32,644.82H178.73a542.5,542.5,0,0,1,68.68-199.23Z"/><path class="cls-2" d="M900.77,795.17l163,349.54A544,544,0,0,1,720,1266.39c-276.27,0-504.64-205-541.27-471.22H410.42l163,349.55H772.34l-163-349.55Z"/><path class="cls-2" d="M1100.29,795.17h161a542.72,542.72,0,0,1-68.54,199Z"/><path class="cls-2" d="M1261.27,644.82H1030.44L868.05,295.28H669.14L830.66,644.81H539.22l-163-349.52h0A544,544,0,0,1,720,173.6C996.25,173.6,1224.63,378.62,1261.27,644.82Z"/></svg>