<svg id="Layer_1" data-name="Layer 1" xmlns="http://www.w3.org/2000/svg" viewBox="0 0 4222.17 1140.65"><defs><style>.cls-1{fill:#f4f4f4;}.cls-2{fill:#f91c32;}.cls-3{fill:#212121;}</style></defs><rect class="cls-1" width="4222.17" height="1140.65"/><polygon class="cls-2" points="884.67 604.47 994.5 604.47 994.5 536.18 830.15 536.18 884.67 604.47"/><polygon class="cls-2" points="3253.89 536.18 3212.02 536.18 1913.27 536.18 1913.27 604.47 3212.02 604.47 3253.89 604.47 3337.5 604.47 3392.03 536.18 3253.89 536.18"/><circle class="cls-2" cx="1488.07" cy="570.32" r="289.29"/><polygon class="cls-3" points="1256.15 396.98 1256.15 743.68 1165.8 743.68 1165.8 604.47 1033.42 604.47 1033.42 743.68 943.07 743.68 943.07 396.98 1033.42 396.98 1033.42 536.18 1165.8 536.18 1165.8 396.98 1256.15 396.98"/><path class="cls-3" d="M1579,413q38.08,21.27,58.57,61.46T1658,570.33q0,55.68-20.49,95.86T1579,727.65q-38.1,21.29-90.61,21.28t-90.88-21.28q-38.36-21.27-58.84-61.46t-20.48-95.86q0-55.68,20.48-95.87T1397.46,413q38.34-21.28,90.88-21.28T1579,413ZM1430.55,490q-20,27.33-20,80.38t20,80.37q20,27.31,57.79,27.31t57.52-27.31q19.7-27.32,19.7-80.37T1545.86,490q-19.71-27.3-57.52-27.31T1430.55,490Z"/><path class="cls-3" d="M1948.5,607.62q33.11-12.07,50.43-37.3t17.34-63q0-53.58-33.89-82T1885.47,397H1720V743.68h88.78V604.47h56L1937,743.68h99.8Zm-74.65-71.15h-65.08V465.26h65.08c29.25,0,53,15.94,53,35.61S1903.1,536.47,1873.85,536.47Z"/><path class="cls-3" d="M2172.28,743.68h-90.35V397h90.35Z"/><path class="cls-3" d="M2527.39,675.39v68.29H2230.06V678.54L2423.9,465.26H2233.74V397h287.34v65.14L2328.3,675.39Z"/><path class="cls-3" d="M2825.5,413q38.09,21.27,58.57,61.46t20.49,95.87q0,55.68-20.49,95.86t-58.57,61.46q-38.1,21.29-90.62,21.28T2644,727.65q-38.36-21.27-58.84-61.46t-20.49-95.86q0-55.68,20.49-95.87T2644,413q38.32-21.28,90.87-21.28T2825.5,413ZM2677.1,490q-20,27.33-20,80.38t20,80.37q20,27.31,57.78,27.31t57.53-27.31q19.7-27.32,19.69-80.37T2792.41,490q-19.71-27.3-57.53-27.31T2677.1,490Z"/><polygon class="cls-3" points="3279.1 396.97 3279.1 743.68 3178.77 743.68 3071.08 556.14 3046.39 506.77 3046.39 743.68 2966.54 743.68 2966.54 396.97 3066.88 396.97 3174.56 584.51 3199.26 633.9 3199.26 396.97 3279.1 396.97"/></svg>