<svg id="Layer_1" data-name="Layer 1" xmlns="http://www.w3.org/2000/svg" viewBox="0 0 4222.17 1140.65"><defs><style>.cls-1{fill:#f4f4f4;}.cls-2{fill:#212121;}</style></defs><polygon class="cls-1" points="1344.98 892.05 1413.58 892.05 1413.58 849.39 1310.92 849.39 1344.98 892.05"/><polygon class="cls-1" points="2824.96 849.39 2798.81 849.39 1987.52 849.39 1987.52 892.05 2798.81 892.05 2824.96 892.05 2877.2 892.05 2911.25 849.39 2824.96 849.39"/><circle class="cls-1" cx="1721.91" cy="870.72" r="180.71"/><polygon class="cls-2" points="1577.03 762.43 1577.03 979.01 1520.6 979.01 1520.6 892.05 1437.9 892.05 1437.9 979.01 1381.46 979.01 1381.46 762.43 1437.9 762.43 1437.9 849.39 1520.6 849.39 1520.6 762.43 1577.03 762.43"/><path class="cls-2" d="M1778.68,772.44a89.37,89.37,0,0,1,36.58,38.39q12.81,25.11,12.8,59.89t-12.8,59.89A89.37,89.37,0,0,1,1778.68,969q-23.81,13.29-56.61,13.29T1665.3,969a89.06,89.06,0,0,1-36.75-38.39q-12.79-25.11-12.8-59.89t12.8-59.89a89.06,89.06,0,0,1,36.75-38.39q24-13.29,56.77-13.29T1778.68,772.44ZM1686,820.51q-12.46,17.07-12.46,50.21T1686,920.93q12.48,17.05,36.1,17.06T1758,920.93q12.32-17.07,12.31-50.21T1758,820.51q-12.3-17.06-35.93-17.06T1686,820.51Z"/><path class="cls-2" d="M2009.52,894q20.68-7.54,31.51-23.3t10.83-39.38q0-33.47-21.17-51.19t-60.54-17.72H1866.78V979h55.46v-87h35l45.1,87h62.34Zm-46.63-44.45h-40.65V805.09h40.65c18.27,0,33.09,10,33.09,22.24S1981.16,849.57,1962.89,849.57Z"/><path class="cls-2" d="M2149.32,979h-56.45V762.43h56.45Z"/><path class="cls-2" d="M2371.14,936.35V979H2185.41V938.32l121.08-133.23H2187.7V762.43h179.5v40.69L2246.77,936.35Z"/><path class="cls-2" d="M2557.36,772.44A89.33,89.33,0,0,1,2594,810.83q12.8,25.11,12.8,59.89T2594,930.61A89.33,89.33,0,0,1,2557.36,969q-23.79,13.29-56.6,13.29T2444,969a89.08,89.08,0,0,1-36.76-38.39q-12.8-25.11-12.79-59.89t12.79-59.89A89.08,89.08,0,0,1,2444,772.44q23.94-13.29,56.77-13.29T2557.36,772.44Zm-92.7,48.07q-12.48,17.07-12.47,50.21t12.47,50.21q12.47,17.05,36.1,17.06t35.93-17.06q12.3-17.07,12.3-50.21t-12.3-50.21q-12.32-17.06-35.93-17.06T2464.66,820.51Z"/><polygon class="cls-2" points="2840.71 762.43 2840.71 979.01 2778.04 979.01 2710.77 861.86 2695.35 831.02 2695.35 979.01 2645.47 979.01 2645.47 762.43 2708.14 762.43 2775.41 879.58 2790.84 910.43 2790.84 762.43 2840.71 762.43"/><circle class="cls-1" cx="2111.09" cy="333.09" r="243.87"/><polygon class="cls-2" points="2352.67 366.64 2406.24 299.54 2249.65 299.54 2177.17 143.53 2088.39 143.53 2160.48 299.53 2030.4 299.53 1957.66 143.53 1868.88 143.53 1941.63 299.54 1815.93 299.54 1869.51 366.64 1972.92 366.64 2045.67 522.65 2134.45 522.65 2061.69 366.64 2111.09 366.64 2191.77 366.64 2264.52 522.65 2353.3 522.65 2280.82 366.64 2352.67 366.64"/></svg>